PathFileType	4	(X/Y/Z)	D:\TRACE\spot_10-12-23\spot_body_motion_3_3-platform.trc
DataRate	CameraRate	NumFrames	NumMarkers	Units	OrigDataRate	OrigDataStartFrame	OrigNumFrames
100.00	100.00	      68	5	mm	100.00	6126	      7000
Frame#	Time	Left_Front			Right_Front			Left_Aft			Right_Aft			Post			
		X1	Y1	Z1	X2	Y2	Z2	X3	Y3	Z3	X4	Y4	Z4	X5	Y5	Z5	

6126	61.250	-788.18591	21.67700	-637.76129	784.40979	26.21050	-630.98181	-704.91187	-4.96423	499.74902	712.63531	-2.34113	586.03271	-5.55902	766.22815	-938.88342	
6127	61.260	-787.84515	21.23146	-637.85699	784.57056	25.81855	-631.02502	-704.76685	-4.72612	499.64606	712.76825	-2.07595	585.96649	-5.13460	765.67908	-939.34412	
6128	61.270	-787.38000	20.80987	-638.06476	784.78784	25.25196	-631.07843	-704.59552	-4.58784	499.59201	712.90717	-1.79538	585.81207	-4.81201	765.29681	-939.74823	
6129	61.280	-787.46948	20.85573	-638.10413	784.98633	24.90372	-631.18140	-704.36884	-4.36145	499.57291	713.14349	-1.39879	585.62238	-4.62142	764.69879	-940.19708	
6130	61.290	-787.24768	20.43906	-638.20752	785.28857	24.52463	-631.35333	-704.15399	-4.11332	499.50998	713.32153	-1.06066	585.54242	-4.37434	763.97296	-940.83740	
6131	61.300	-787.11371	19.81764	-638.24536	785.50244	24.28691	-631.37677	-703.96625	-3.72381	499.37222	713.51398	-0.75142	585.48181	-4.18815	763.50848	-941.31506	
6132	61.310	-786.82629	19.37687	-638.43744	785.66272	23.89301	-631.56476	-703.90027	-3.27734	499.28607	713.69977	-0.38001	585.45496	-4.18984	762.95789	-941.84503	
6133	61.320	-786.84045	19.06954	-638.40546	785.85052	23.42523	-631.60693	-703.76678	-3.05378	499.10757	713.81659	-0.03991	585.39313	-4.11962	762.50684	-942.54974	
6134	61.330	-786.69440	18.89281	-638.59595	785.98022	23.03184	-631.73315	-703.64294	-2.86690	498.96747	713.93323	0.28847	585.34509	-4.11487	762.06683	-943.33868	
6135	61.340	-786.36847	18.42496	-638.67743	786.24408	22.58764	-631.83734	-703.48773	-2.71592	498.91946	714.14081	0.55231	585.27197	-3.67316	761.33899	-943.90216	
6136	61.350	-786.11230	17.91801	-638.69000	786.48340	22.22243	-631.95624	-703.07391	-2.41964	498.77356	714.36102	0.77254	585.22443	-3.40117	760.72913	-944.37207	
6137	61.360	-785.79926	17.45049	-638.86896	786.79102	21.89898	-631.99060	-702.67670	-2.20493	498.79242	714.61511	1.07002	585.14258	-3.08039	760.20306	-944.98975	
6138	61.370	-785.49945	17.05718	-639.03430	786.86914	21.51030	-632.22864	-702.37927	-1.95362	498.84390	714.81934	1.36140	585.00439	-2.85736	759.76520	-945.35687	
6139	61.380	-785.33362	16.82600	-639.10706	787.17804	21.31671	-632.14276	-702.27057	-1.81137	498.83548	714.99329	1.62172	584.88593	-2.72115	759.35077	-945.73212	
6140	61.390	-785.12323	16.47072	-639.12158	787.43457	20.96254	-632.14294	-702.10718	-1.65925	498.73532	715.20258	1.90422	584.77960	-2.56773	758.76727	-946.11304	
6141	61.400	-785.09656	16.49232	-639.28345	787.73999	20.68029	-632.28375	-701.91644	-1.43899	498.63254	715.39252	2.23862	584.62323	-2.22023	758.18024	-946.56543	
6142	61.410	-784.85657	16.17059	-639.27625	787.85529	20.37927	-632.41028	-701.72498	-1.07684	498.47256	715.56921	2.46275	584.56549	-2.01013	757.83484	-946.94904	
6143	61.420	-784.71082	15.76299	-639.30408	788.00256	20.10580	-632.51630	-701.37860	-0.75753	498.42505	715.76532	2.75542	584.53247	-1.89037	757.46533	-947.30072	
6144	61.430	-784.35645	15.21196	-639.41156	788.10803	19.80659	-632.60657	-701.30518	-0.50527	498.31104	715.99811	3.02103	584.49719	-1.86856	756.97772	-947.56378	
6145	61.440	-784.11658	14.83232	-639.50104	788.33087	19.42343	-632.70068	-701.16534	-0.35448	498.27298	716.18665	3.25479	584.40704	-1.57578	756.38562	-947.96002	
6146	61.450	-784.03833	14.53479	-639.45306	788.45435	19.21880	-632.78436	-701.03937	-0.15562	498.20877	716.38361	3.47213	584.32666	-1.37625	755.91437	-948.43396	
6147	61.460	-783.95465	14.52696	-639.59241	788.60211	18.95536	-632.92206	-700.92334	-0.00790	498.17706	716.71844	3.68648	584.27478	-1.17613	755.62225	-948.81128	
6148	61.470	-783.66992	14.09198	-639.60205	788.79333	18.62231	-632.98822	-700.73346	0.13012	498.11581	716.99347	3.94202	584.21851	-0.94416	755.32367	-949.25494	
6149	61.480	-783.46289	13.83988	-639.67108	788.91998	18.30145	-633.01196	-700.54510	0.31848	498.07031	717.17474	4.24150	584.12915	-0.77123	754.98102	-949.63660	
6150	61.490	-783.40552	13.62147	-639.68372	789.08539	18.11417	-633.05267	-700.27667	0.47020	498.07129	717.27655	4.45482	584.11285	-0.62622	754.58710	-950.13190	
6151	61.500	-783.22760	13.40555	-639.83734	789.27386	17.78349	-633.11261	-699.99530	0.62220	498.18146	717.42365	4.58483	584.00763	-0.46198	754.19037	-950.63208	
6152	61.510	-782.93390	13.09908	-640.07373	789.47382	17.49967	-633.26160	-699.82050	0.78682	498.10394	717.48358	4.75885	584.00775	-0.33237	753.73822	-950.96539	
6153	61.520	-782.75684	12.76029	-640.05652	789.62549	17.31200	-633.27740	-699.70795	0.92309	498.08212	717.59418	4.93468	583.96533	-0.29381	753.38202	-951.28418	
6154	61.530	-782.59442	12.54433	-640.12885	789.71942	17.12229	-633.32819	-699.58026	1.08280	498.02585	717.76147	5.12969	583.94958	-0.15109	753.08551	-951.43518	
6155	61.540	-782.41974	12.36451	-640.14178	789.87354	16.92752	-633.38086	-699.50787	1.24741	497.96353	717.91840	5.33311	583.90253	0.03454	752.87445	-951.61816	
6156	61.550	-782.23584	12.25467	-640.28101	790.09546	16.70339	-633.37054	-699.40448	1.36299	497.90262	718.05151	5.46853	583.87769	0.23103	752.60645	-951.83667	
6157	61.560	-782.33600	12.36352	-640.29883	790.08026	16.54725	-633.48730	-699.31769	1.50685	497.86932	718.09924	5.54270	583.87311	0.47500	752.39453	-952.07690	
6158	61.570	-782.25208	12.27399	-640.28528	790.20605	16.40494	-633.51605	-699.22040	1.60583	497.77777	718.18414	5.61397	583.82202	0.61860	752.23212	-952.18323	
6159	61.580	-782.13556	12.15153	-640.36066	790.31171	16.32494	-633.50128	-699.08203	1.67355	497.74838	718.22430	5.68465	583.79071	0.67263	752.07404	-952.41992	
6160	61.590	-782.02478	12.11472	-640.35858	790.41516	16.23634	-633.48975	-698.94849	1.74902	497.70007	718.33649	5.79738	583.76715	0.79101	751.99976	-952.59454	
6161	61.600	-782.03125	11.98287	-640.34320	790.62830	16.11790	-633.42932	-698.86450	1.84436	497.64359	718.43085	5.90312	583.74506	0.89456	751.90546	-952.70746	
6162	61.610	-781.89630	11.94808	-640.40747	790.57886	16.06418	-633.55237	-698.77014	1.94122	497.61389	718.53156	5.97741	583.70349	0.95053	751.77600	-952.77820	
6163	61.620	-781.86798	11.89709	-640.40607	790.81281	15.97501	-633.42303	-698.64032	1.94849	497.53726	718.56702	6.04134	583.67859	0.76809	751.68573	-952.82715	
6164	61.630	-781.82013	11.82090	-640.40393	790.85675	15.91965	-633.43848	-698.63245	1.99683	497.51727	718.62854	6.11448	583.64941	0.77567	751.55347	-952.92413	
6165	61.640	-781.83557	11.73081	-640.37274	790.92358	15.88060	-633.45056	-698.55298	1.99420	497.54834	718.65796	6.16317	583.64203	0.88472	751.41632	-952.94452	
6166	61.650	-781.73651	11.73936	-640.44867	791.00177	15.77980	-633.46857	-698.45197	2.00675	497.57169	718.70770	6.20205	583.61493	0.95325	751.31012	-953.05341	
6167	61.660	-781.79596	11.62655	-640.41016	790.98743	15.78095	-633.50964	-698.43671	2.00359	497.56104	718.68896	6.21294	583.60913	1.05194	751.20612	-953.11536	
6168	61.670	-781.72607	11.63643	-640.43042	791.00244	15.76455	-633.55414	-698.47711	2.01256	497.52792	718.73083	6.21956	583.62341	1.05416	751.15686	-953.18597	
6169	61.680	-781.70032	11.67492	-640.44830	791.06305	15.76090	-633.47687	-698.41663	2.02394	497.57010	718.73096	6.20277	583.61499	1.03435	751.16083	-953.25464	
6170	61.690	-781.76434	11.64450	-640.41974	791.02606	15.78691	-633.48676	-698.50885	2.10810	497.55087	718.72961	6.19924	583.60974	1.07257	751.16168	-953.30164	
6171	61.700	-781.71393	11.75383	-640.42310	790.98071	15.80610	-633.50262	-698.50793	2.10302	497.34641	718.71777	6.16245	583.64001	0.90200	751.37860	-953.31726	
6172	61.710	-781.78400	11.74417	-640.39545	791.00403	15.83997	-633.45966	-698.48651	2.08346	497.57977	718.73505	6.13365	583.63458	1.11580	751.42969	-953.30872	
6173	61.720	-781.71454	11.80334	-640.44202	791.00989	15.89734	-633.43115	-698.53748	2.01376	497.61664	718.72412	6.11722	583.62994	1.08018	751.51898	-953.20966	
6174	61.730	-781.75903	11.86201	-640.35535	790.99097	15.98968	-633.43530	-698.46021	2.04554	497.58859	718.74365	6.09568	583.66022	1.08166	751.57440	-953.06989	
6175	61.740	-781.78186	11.86191	-640.38196	790.98877	15.88064	-633.47479	-698.50507	1.99224	497.55542	718.71680	5.99077	583.70270	1.04212	751.68842	-952.97894	
6176	61.750	-781.75098	11.82185	-640.38623	790.99390	15.89791	-633.39948	-698.53845	1.95733	497.61093	718.68561	6.00682	583.73413	0.90709	751.81494	-952.80371	
6177	61.760	-781.74530	12.04037	-640.37427	790.98999	16.11679	-633.37781	-698.53760	1.85010	497.60944	718.66357	5.85861	583.72107	1.03019	751.94592	-952.62909	
6178	61.770	-781.67303	12.07083	-640.31873	790.91315	16.29169	-633.31342	-698.54187	1.82713	497.69232	718.66663	5.78682	583.77087	0.97799	752.07300	-952.40442	
6179	61.780	-781.66217	12.16091	-640.30090	790.96252	16.37734	-633.27393	-698.59570	1.74735	497.67014	718.60754	5.74574	583.79858	0.92619	752.20135	-952.28131	
6180	61.790	-781.75153	12.23416	-640.26569	790.83209	16.48451	-633.20599	-698.70789	1.52814	497.72122	718.54242	5.57839	583.82434	0.78665	752.43176	-952.12866	
6181	61.800	-781.89398	12.41298	-640.24060	790.57678	16.91442	-633.30316	-698.86035	1.40222	497.83881	718.43610	5.43038	583.85693	0.55187	752.67932	-951.91028	
6182	61.810	-782.14063	12.53964	-640.20337	790.38281	17.01740	-633.25342	-699.14862	1.20323	497.96860	718.21680	5.22859	583.91003	0.26369	752.98230	-951.64319	
6183	61.820	-782.38477	12.85539	-640.17352	790.06000	17.20899	-633.34460	-699.36108	1.03693	497.93164	718.05798	5.09766	583.97339	0.06615	753.27344	-951.29950	
6184	61.830	-782.60034	13.08164	-640.06494	789.94739	17.42204	-633.26794	-699.44348	0.82847	498.07083	717.84949	4.77208	583.94611	-0.01949	753.61328	-951.04663	
6185	61.840	-782.71271	13.25304	-640.02380	789.88928	17.72896	-633.19409	-699.55890	0.78253	497.96506	717.74097	4.66958	584.02606	0.06983	754.00818	-950.65619	
6186	61.850	-782.83429	13.55611	-639.92755	789.83075	17.95909	-633.07422	-699.62799	0.71776	498.03870	717.67755	4.53563	584.04401	0.04574	754.25665	-950.30249	
6187	61.860	-783.00952	13.69594	-639.85303	789.64520	18.04902	-633.09766	-699.76837	0.53167	498.05746	717.66217	4.33369	584.06842	-0.00077	754.56879	-949.86548	
6188	61.870	-783.28210	13.71785	-639.60974	789.46460	18.22047	-633.08075	-699.98151	0.39714	498.15750	717.50079	4.18526	584.12518	-0.17478	754.87396	-949.38220	
6189	61.880	-783.38757	13.87455	-639.56421	789.26984	18.52732	-633.01752	-700.29181	0.17269	498.11530	717.36548	4.03936	584.20660	-0.31852	755.09967	-949.06836	
6190	61.890	-783.58710	14.22535	-639.55292	788.93524	18.83757	-632.95654	-700.58325	0.06835	498.14435	717.08356	3.80490	584.28406	-0.72517	755.37354	-948.82745	
6191	61.900	-783.87695	14.61970	-639.53607	788.72485	19.12543	-632.87805	-700.70636	-0.09737	498.19174	716.91284	3.60927	584.30750	-0.97654	755.74786	-948.64246	
6192	61.910	-783.93488	14.77204	-639.54401	788.57361	19.37903	-632.75171	-700.92786	-0.25277	498.23962	716.56000	3.34793	584.37329	-1.18362	756.14093	-948.39911	
6193	61.920	-784.00641	14.96295	-639.53784	788.41254	19.58093	-632.67059	-701.01538	-0.49852	498.29999	716.28210	3.08187	584.47607	-1.44902	756.63354	-948.08301	
